<svg xmlns="http://www.w3.org/2000/svg" fill="none" viewBox="0 0 30 30">
    <path fill="#fff" fill-rule="evenodd" d="M15 0C6.716 0 0 6.716 0 15c0 8.284 6.716 15 15 15 8.284 0 15-6.716 15-15 0-8.284-6.716-15-15-15zm7.352 12.227v-.47a6.716 6.716 0 001.804-1.921 7.04 7.04 0 01-2.11.586 3.787 3.787 0 001.618-2.04c-.727.423-1.5.727-2.344.891a3.658 3.658 0 00-2.672-1.148 3.671 3.671 0 00-3.68 3.68c0 .28.024.586.095.843a10.454 10.454 0 01-7.57-3.843A3.761 3.761 0 007 10.656a3.68 3.68 0 001.64 3.07 3.61 3.61 0 01-1.663-.468v.047A3.648 3.648 0 009.93 16.89c-.305.093-.633.14-.961.14-.258 0-.469-.023-.703-.07a3.637 3.637 0 003.421 2.555 7.437 7.437 0 01-4.57 1.57c-.281 0-.586-.023-.867-.047a10.553 10.553 0 005.648 1.64c6.75 0 10.454-5.6 10.454-10.452z" clip-rule="evenodd"/>
</svg>