<svg width="36" height="36" viewBox="0 0 36 36" fill="none" xmlns="http://www.w3.org/2000/svg">
<rect width="36" height="36" rx="18" fill="#F7931A"/>
<path d="M26.2741 15.7667C26.6314 13.206 24.7257 11.8958 22.1054 10.9429L22.9391 7.48883L20.8548 7.01241L20.021 10.3474C19.485 10.2283 18.8895 10.1092 18.3535 9.93052L19.1873 6.53598L17.1029 6L16.2692 9.45409C15.7927 9.33499 12.0409 8.38213 12.0409 8.38213L11.5049 10.5856C11.5049 10.5856 13.0533 10.9429 12.9937 10.9429C13.8275 11.1811 14.0061 11.7171 13.9466 12.134L11.624 21.5434C11.5049 21.7816 11.2667 22.1985 10.6711 22.0199C10.6711 22.0794 9.12276 21.6625 9.12276 21.6625L8.11035 24.0447C8.11035 24.0447 11.8622 24.9975 12.3386 25.1166L11.4453 28.5707L13.5297 29.1067L14.3635 25.6526C14.959 25.8313 15.495 25.9504 16.0309 26.0695L15.1972 29.464L17.2816 30L18.1749 26.5459C21.7481 27.201 24.428 26.9628 25.5595 23.7469C26.4528 21.1266 25.4999 19.6377 23.6538 18.6849C24.964 18.5658 25.9764 17.6725 26.2741 15.7667ZM21.5099 22.4963C20.8548 25.1166 16.5074 23.6873 15.0781 23.33L16.2096 18.7444C17.6389 19.1017 22.1649 19.7568 21.5099 22.4963ZM22.1649 15.7667C21.5694 18.1489 17.9367 16.9578 16.7456 16.66L17.758 12.4913C18.9491 12.7295 22.7605 13.2655 22.1649 15.7667Z" fill="white"/>
</svg>
