<?xml version="1.0" standalone="yes"?>
<svg xmlns="http://www.w3.org/2000/svg" width="49" height="49">
<path style="fill:#010101; stroke:none;" d="M0 0L0 21L1 21C4.89632 -4.88027 44.1037 -4.88028 48 21L49 21L49 0L0 0z"/>
<path style="fill:#b09002; stroke:none;" d="M19.6667 1.33333L20.3333 1.66667L19.6667 1.33333z"/>
<path style="fill:#d5ac02; stroke:none;" d="M21 1L22 2L21 1z"/>
<path style="fill:#fcdd1e; stroke:none;" d="M39 41L42 42C43.9154 39.1491 48.5624 34.1646 46 31C52.0029 22.5674 45.9087 9.47883 37.9853 4.61266C26.1829 -2.63591 9.87767 2.207 4.21373 15C-1.0392 26.8647 4.72313 41.4953 17 46.1852C23.2357 48.5673 37.3702 49.5083 39 41z"/>
<path style="fill:#b09002; stroke:none;" d="M16 2L17 3L16 2z"/>
<path style="fill:#d5ac02; stroke:none;" d="M17 2L18 3L17 2z"/>
<path style="fill:#b09002; stroke:none;" d="M13 3C-2.19106 14.582 -5.09607 36.0926 14 46C6.99716 36.0571 -1.85524 28.135 4.56867 15C6.73586 10.5687 11.852 7.7358 13 3z"/>
<path style="fill:#d5ac02; stroke:none;" d="M14 3L15 4L14 3M13 4L14 5L13 4M30 41L31 41L34 43L34 39L41 40L39 38L43 36L42 32L40 33L40 32L41 15L34 10L34 8L32 9L32 7C26.9945 6.67424 22.8711 5.60938 18 7.80401C7.76145 12.4169 3.85814 25.8091 10.51 34.9954C14.3399 40.2845 24.0422 46.0101 30 41z"/>
<path style="fill:#b09002; stroke:none;" d="M27 6L28 7L27 6z"/>
<path style="fill:#fcdd1e; stroke:none;" d="M7 7L8 8L7 7z"/>
<path style="fill:#b09002; stroke:none;" d="M30 7L31 8L30 7z"/>
<path style="fill:#d52b01; stroke:none;" d="M6 8L7 9L6 8z"/>
<path style="fill:#b09002; stroke:none;" d="M32 8L33 9L32 8M34 9L35 10L34 9M35 10L37 12L35 10z"/>
<path style="fill:#fcdd1e; stroke:none;" d="M21 14L25 14L23 16L22 19L19 25L14 31L14 29L12 29C12.0049 33.0358 13.4296 35.1434 17 37L16 33L35 33L33 36L36 37L40 30L36 31L35 31C32.5614 26.9491 24.8483 17.8046 30 14C27.6057 10.3074 23.3943 10.3074 21 14z"/>
<path style="fill:#d52b01; stroke:none;" d="M3 12L4 13L3 12z"/>
<path style="fill:#d5ac02; stroke:none;" d="M5 12L6 13L5 12z"/>
<path style="fill:#b09002; stroke:none;" d="M37 12L38 13L37 12z"/>
<path style="fill:#d5ac02; stroke:none;" d="M45 12L46 13L45 12z"/>
<path style="fill:#b09002; stroke:none;" d="M38 13L39 14L38 13M23.3333 14.6667L23.6667 15.3333L23.3333 14.6667z"/>
<path style="fill:#d5ac02; stroke:none;" d="M24.3333 14.6667L24.6667 15.3333L24.3333 14.6667z"/>
<path style="fill:#b09002; stroke:none;" d="M39.3333 14.6667L39.6667 15.3333L39.3333 14.6667M40.3333 16.6667L40.6667 17.3333L40.3333 16.6667M22.3333 17.6667L22.6667 18.3333L22.3333 17.6667z"/>
<path style="fill:#d5ac02; stroke:none;" d="M23.3333 17.6667L23.6667 18.3333L23.3333 17.6667z"/>
<path style="fill:#b09002; stroke:none;" d="M41 18L41 31L42 31L41 18M21 20L19 25L20 25L21 20z"/>
<path style="fill:#d5ac02; stroke:none;" d="M22.3333 20.6667L22.6667 21.3333L22.3333 20.6667z"/>
<path style="fill:#b09002; stroke:none;" d="M25 21L27 24L25 21z"/>
<path style="fill:#d5ac02; stroke:none;" d="M26.3333 21.6667L26.6667 22.3333L26.3333 21.6667M48 21L47 29L48 29L48 21M21.3333 22.6667L21.6667 23.3333L21.3333 22.6667M24 23L21 29L29 29L26 23L24 23M20 24L21 25L20 24z"/>
<path style="fill:#b09002; stroke:none;" d="M27 25L28 26L27 25z"/>
<path style="fill:#d5ac02; stroke:none;" d="M44 25L43 28L47 28L47 27L44 25z"/>
<path style="fill:#b09002; stroke:none;" d="M28 27L29 28L28 27z"/>
<path style="fill:#010101; stroke:none;" d="M0 28L0 49L49 49L49 28L48 28C45.5129 44.52 26.1541 52.9533 12.0039 44.3873C5.25613 40.3025 3.49796 34.4242 0 28z"/>
<path style="fill:#b09002; stroke:none;" d="M29 28L30 29L29 28M36 29L37 30L36 29z"/>
<path style="fill:#d5ac02; stroke:none;" d="M45 29L46 30L45 29M46.6667 30.3333L47.3333 30.6667L46.6667 30.3333z"/>
<path style="fill:#b09002; stroke:none;" d="M40.3333 31.6667L40.6667 32.3333L40.3333 31.6667z"/>
<path style="fill:#d5ac02; stroke:none;" d="M43.3333 31.6667L43.6667 32.3333L43.3333 31.6667z"/>
<path style="fill:#b09002; stroke:none;" d="M34 33L35 34L34 33z"/>
<path style="fill:#d5ac02; stroke:none;" d="M38 33L36 37L38 33z"/>
<path style="fill:#b09002; stroke:none;" d="M39 33L37 37L39 33M33 34L34 35L33 34z"/>
<path style="fill:#fcdd1e; stroke:none;" d="M40 34L41 35L40 34M39 35L40 36L39 35z"/>
<path style="fill:#d52b01; stroke:none;" d="M3 36L4 37L3 36z"/>
<path style="fill:#d5ac02; stroke:none;" d="M5 36L6 37L5 36z"/>
<path style="fill:#b09002; stroke:none;" d="M33 36L34 37L33 36z"/>
<path style="fill:#fcdd1e; stroke:none;" d="M38 36L39 37L38 36z"/>
<path style="fill:#d5ac02; stroke:none;" d="M45 36L46 37L45 36z"/>
<path style="fill:#b09002; stroke:none;" d="M36 37L37 38L36 37M35 38L36 39L35 38M34 39L35 40L34 39z"/>
<path style="fill:#d52b01; stroke:none;" d="M6 40L7 41L6 40z"/>
<path style="fill:#b09002; stroke:none;" d="M32 40L33 41L32 40z"/>
<path style="fill:#fcdd1e; stroke:none;" d="M7 41L8 42L7 41z"/>
<path style="fill:#b09002; stroke:none;" d="M30 41L31 42L30 41z"/>
<path style="fill:#d5ac02; stroke:none;" d="M39.6667 41.3333L40.3333 41.6667L39.6667 41.3333z"/>
<path style="fill:#b09002; stroke:none;" d="M27 42L28 43L27 42z"/>
<path style="fill:#d5ac02; stroke:none;" d="M35 43L34 45L35 43M13 44L14 45L13 44M14 45L15 46L14 45z"/>
<path style="fill:#b09002; stroke:none;" d="M16 46L17 47L16 46z"/>
<path style="fill:#d5ac02; stroke:none;" d="M17 46L18 47L17 46z"/>
<path style="fill:#b09002; stroke:none;" d="M19.6667 47.3333L20.3333 47.6667L19.6667 47.3333z"/>
<path style="fill:#d5ac02; stroke:none;" d="M21 47L22 48L21 47z"/>
</svg>
