<svg width="74" height="63" viewBox="0 0 74 63" fill="none" xmlns="http://www.w3.org/2000/svg">
<mask id="path-1-inside-1" fill="white">
<path d="M9.82554 43.8644C2.12617 40.8068 -1.70698 32.0383 2.15645 24.71C5.68784 18.0116 9.75694 11.6106 14.3235 5.57032C19.3195 -1.03796 28.886 -1.28836 34.9221 4.38566L68.624 36.0658C80.6826 47.4011 68.1954 67.0444 52.814 60.9361L9.82554 43.8644Z"/>
</mask>
<path d="M9.82554 43.8644C2.12617 40.8068 -1.70698 32.0383 2.15645 24.71C5.68784 18.0116 9.75694 11.6106 14.3235 5.57032C19.3195 -1.03796 28.886 -1.28836 34.9221 4.38566L68.624 36.0658C80.6826 47.4011 68.1954 67.0444 52.814 60.9361L9.82554 43.8644Z" fill="#27AE60" stroke="black" stroke-width="16" mask="url(#path-1-inside-1)"/>
</svg>
