<svg width="96" height="116" viewBox="0 0 96 116" fill="none" xmlns="http://www.w3.org/2000/svg">
<mask id="path-1-inside-1" fill="white">
<path d="M6.11687 55.4309C-1.12574 48.6213 -1.54117 37.1244 6.14086 30.8147C16.2256 22.5316 27.4421 15.6802 39.4763 10.4811C51.5105 5.28196 64.1874 1.81074 77.131 0.145037C86.9908 -1.12382 95.0775 7.0589 95.0717 17L95.0244 97.4031C95.0152 113.168 76.1804 121.306 64.6946 110.506L6.11687 55.4309Z"/>
</mask>
<path d="M6.11687 55.4309C-1.12574 48.6213 -1.54117 37.1244 6.14086 30.8147C16.2256 22.5316 27.4421 15.6802 39.4763 10.4811C51.5105 5.28196 64.1874 1.81074 77.131 0.145037C86.9908 -1.12382 95.0775 7.0589 95.0717 17L95.0244 97.4031C95.0152 113.168 76.1804 121.306 64.6946 110.506L6.11687 55.4309Z" fill="#EB5757" stroke="black" stroke-width="16" mask="url(#path-1-inside-1)"/>
</svg>
