<svg width="76" height="102" viewBox="0 0 76 102" fill="none" xmlns="http://www.w3.org/2000/svg">
<mask id="path-1-inside-1" fill="white">
<path d="M1.45484e-06 17C1.57338e-06 7.05888 8.09199 -1.11919 17.9511 0.15547C35.2246 2.38873 51.9331 7.82699 67.212 16.1888C75.9325 20.9614 77.6607 32.3357 71.8093 40.3723L32.5516 94.2914C22.2936 108.38 4.51662e-07 101.124 6.59486e-07 83.6966L1.45484e-06 17Z"/>
</mask>
<path d="M1.45484e-06 17C1.57338e-06 7.05888 8.09199 -1.11919 17.9511 0.15547C35.2246 2.38873 51.9331 7.82699 67.212 16.1888C75.9325 20.9614 77.6607 32.3357 71.8093 40.3723L32.5516 94.2914C22.2936 108.38 4.51662e-07 101.124 6.59486e-07 83.6966L1.45484e-06 17Z" fill="#7A4CFC" stroke="black" stroke-width="16" mask="url(#path-1-inside-1)"/>
</svg>
