<svg width="141" height="245" viewBox="0 0 141 245" fill="none" xmlns="http://www.w3.org/2000/svg">
<mask id="path-1-inside-1" fill="white">
<path d="M71.6096 8.97273C78.109 0.041616 90.7406 -2.02164 98.6554 5.68316C114.912 21.5087 127.155 41.1244 134.201 62.8999C143.309 91.0493 143.265 121.361 134.076 149.484C124.886 177.607 107.024 202.095 83.0514 219.435C64.5072 232.849 43.0443 241.451 20.5796 244.624C9.64247 246.169 0.666273 237.045 0.694403 226L0.983501 112.479C0.994226 108.267 2.33413 104.167 4.81222 100.761L71.6096 8.97273Z"/>
</mask>
<path d="M71.6096 8.97273C78.109 0.041616 90.7406 -2.02164 98.6554 5.68316C114.912 21.5087 127.155 41.1244 134.201 62.8999C143.309 91.0493 143.265 121.361 134.076 149.484C124.886 177.607 107.024 202.095 83.0514 219.435C64.5072 232.849 43.0443 241.451 20.5796 244.624C9.64247 246.169 0.666273 237.045 0.694403 226L0.983501 112.479C0.994226 108.267 2.33413 104.167 4.81222 100.761L71.6096 8.97273Z" fill="#FF921F" stroke="black" stroke-width="16" mask="url(#path-1-inside-1)"/>
</svg>
