<svg width="140" height="185" viewBox="0 0 140 185" fill="none" xmlns="http://www.w3.org/2000/svg">
<mask id="path-1-inside-1" fill="white">
<path d="M140 166C140 177.046 131.001 186.146 120.068 184.574C104.171 182.287 88.7356 177.275 74.4563 169.709C54.2652 159.012 36.9994 143.535 24.1661 124.629C11.3328 105.723 3.32199 83.9637 0.833027 61.2497C-0.927184 45.1862 0.11213 28.9907 3.855 13.3726C6.4292 2.63108 18.2091 -2.37314 28.4748 1.70418L127.383 40.9886C135 44.014 140 51.3803 140 59.5762L140 166Z"/>
</mask>
<path d="M140 166C140 177.046 131.001 186.146 120.068 184.574C104.171 182.287 88.7356 177.275 74.4563 169.709C54.2652 159.012 36.9994 143.535 24.1661 124.629C11.3328 105.723 3.32199 83.9637 0.833027 61.2497C-0.927184 45.1862 0.11213 28.9907 3.855 13.3726C6.4292 2.63108 18.2091 -2.37314 28.4748 1.70418L127.383 40.9886C135 44.014 140 51.3803 140 59.5762L140 166Z" fill="#1DA1F2" stroke="black" stroke-width="16" mask="url(#path-1-inside-1)"/>
</svg>
