<svg width="28" height="23" viewBox="0 0 28 23" fill="none" xmlns="http://www.w3.org/2000/svg">
<path d="M25.178 6.20184C25.178 6.44982 25.178 6.69781 25.178 6.91037C25.178 14.2437 19.3874 22.7107 8.83246 22.7107C5.57068 22.7107 2.56545 21.7896 0 20.2308C0.439791 20.2662 0.91623 20.3017 1.35602 20.3017C4.03141 20.3017 6.52356 19.416 8.50262 17.9281C5.97382 17.8927 3.84817 16.263 3.15183 14.0666C3.51832 14.1374 3.84817 14.1729 4.25131 14.1729C4.7644 14.1729 5.27749 14.102 5.75393 13.9603C3.11518 13.4643 1.13613 11.2324 1.13613 8.54C1.13613 8.50457 1.13613 8.50457 1.13613 8.46915C1.90576 8.89427 2.78534 9.14225 3.73822 9.17768C2.19895 8.18573 1.17277 6.48525 1.17277 4.53678C1.17277 3.50941 1.46597 2.55288 1.94241 1.73807C4.7644 5.10361 9.01571 7.30007 13.7801 7.54805C13.6702 7.15836 13.6335 6.69781 13.6335 6.27269C13.6335 3.19056 16.199 0.710693 19.3874 0.710693C21.0366 0.710693 22.5393 1.3838 23.5654 2.4466C24.8848 2.19862 26.0942 1.73807 27.2304 1.10039C26.7906 2.41118 25.8743 3.47398 24.7016 4.18251C25.8743 4.04081 26.9738 3.75739 28 3.29684C27.267 4.4305 26.3141 5.42245 25.178 6.20184Z" fill="white"/>
</svg>
