<svg width="48" height="48" viewBox="0 0 48 48" fill="none" xmlns="http://www.w3.org/2000/svg">
<g id="Bitcoin">
<g id="Bitcoin_2">
<rect id="Rectangle" width="48" height="48" rx="24" fill="#F7931A"/>
<path id="Path" d="M35.0318 21.0223C35.5083 17.6079 32.9673 15.861 29.4735 14.5906L30.5852 9.98511L27.806 9.34988L26.6944 13.7965C25.9797 13.6377 25.1857 13.4789 24.471 13.2407L25.5827 8.71464L22.8036 8L21.6919 12.6055C21.0567 12.4467 16.0542 11.1762 16.0542 11.1762L15.3395 14.1141C15.3395 14.1141 17.404 14.5906 17.3246 14.5906C18.4363 14.9082 18.6745 15.6228 18.5951 16.1787L15.4983 28.7246C15.3395 29.0422 15.0219 29.598 14.2279 29.3598C14.2279 29.4392 12.1634 28.8834 12.1634 28.8834L10.8135 32.0596C10.8135 32.0596 15.816 33.33 16.4512 33.4888L15.2601 38.0943L18.0393 38.8089L19.1509 34.2035C19.945 34.4417 20.6596 34.6005 21.3743 34.7593L20.2626 39.2854L23.0418 40L24.2328 35.3945C28.9971 36.268 32.5703 35.9504 34.079 31.6625C35.2701 28.1687 33.9996 26.1836 31.538 24.9132C33.2849 24.7543 34.6348 23.5633 35.0318 21.0223ZM28.6795 29.995C27.806 33.4888 22.0095 31.5831 20.1038 31.1067L21.6125 24.9926C23.5182 25.469 29.5529 26.3424 28.6795 29.995ZM29.5529 21.0223C28.7589 24.1985 23.9152 22.6104 22.3271 22.2134L23.677 16.6551C25.2651 16.9727 30.347 17.6873 29.5529 21.0223Z" fill="white"/>
</g>
</g>
</svg>
